<svg xmlns="http://www.w3.org/2000/svg" viewBox="0 0 500 500"><g id="freepik--background-simple--inject-28"><path d="M323.83,36.06S244.49,4.89,168.61,48.88,56.28,183.38,24.83,255.82,14.63,403.43,74.41,439.1s98.47-13.38,181-13.52,105.06,12.73,172.29-33.76,76.55-160.45,20.22-246.54S323.83,36.06,323.83,36.06Z" style="fill:#92E3A9"></path><path d="M323.83,36.06S244.49,4.89,168.61,48.88,56.28,183.38,24.83,255.82,14.63,403.43,74.41,439.1s98.47-13.38,181-13.52,105.06,12.73,172.29-33.76,76.55-160.45,20.22-246.54S323.83,36.06,323.83,36.06Z" style="fill:#fff;opacity:0.7000000000000001"></path></g></svg>
